HIERARCHY
ROOT Hips
{
	OFFSET 0.00000 0.00000 0.00000
	CHANNELS 6 Xposition Yposition Zposition Zrotation Yrotation Xrotation 
	JOINT LHipJoint
	{
		OFFSET 0 0 0
		CHANNELS 3 Zrotation Yrotation Xrotation
		JOINT LeftHip
		{
			OFFSET 1.36337 -1.57426 1.11036
			CHANNELS 3 Zrotation Yrotation Xrotation
			JOINT LeftKnee
			{
				OFFSET 2.38468 -6.55187 0.00000
				CHANNELS 3 Zrotation Yrotation Xrotation
				JOINT LeftAnkle
				{
					OFFSET 2.37166 -6.51609 0.00000
					CHANNELS 3 Zrotation Yrotation Xrotation
					JOINT LeftToe
					{
						OFFSET 0.29078 -0.79891 2.01393
						CHANNELS 3 Zrotation Yrotation Xrotation
						End Site
						{
							OFFSET 0.00000 -0.00000 1.07924
						}
					}
				}
			}
		}
	}
	JOINT RHipJoint
	{
		OFFSET 0 0 0
		CHANNELS 3 Zrotation Yrotation Xrotation
		JOINT RightHip
		{
			OFFSET -1.36349 -1.57426 1.11036
			CHANNELS 3 Zrotation Yrotation Xrotation
			JOINT RightKnee
			{
				OFFSET -2.29562 -6.30717 0.00000
				CHANNELS 3 Zrotation Yrotation Xrotation
				JOINT RightAnkle
				{
					OFFSET -2.40985 -6.62100 0.00000
					CHANNELS 3 Zrotation Yrotation Xrotation
					JOINT RightToe
					{
						OFFSET -0.23197 -0.63733 1.92232
						CHANNELS 3 Zrotation Yrotation Xrotation
						End Site
						{
							OFFSET -0.00000 -0.00000 1.01562
						}
					}
				}
			}
		}
	}
	JOINT lowerback
	{
		OFFSET 0 0 0
		CHANNELS 3 Zrotation Yrotation Xrotation
		JOINT Chest
		{
			OFFSET -0.08565 2.03602 -0.24562
			CHANNELS 3 Zrotation Yrotation Xrotation
			JOINT Chest2
			{
				OFFSET -0.00036 2.05693 0.00216
				CHANNELS 3 Zrotation Yrotation Xrotation
				JOINT lowerneck
				{
					OFFSET 0 0 0
					CHANNELS 3 Zrotation Yrotation Xrotation
					JOINT Neck
					{
						OFFSET -0.03664 1.69515 0.31789
						CHANNELS 3 Zrotation Yrotation Xrotation
						JOINT Head
						{
							OFFSET 0.00932 1.70181 -0.46013
							CHANNELS 3 Zrotation Yrotation Xrotation
							End Site
							{
								OFFSET 0.01243 1.77620 -0.19377
							}
						}
					}
				}
				JOINT LeftCollar
				{
					OFFSET 0 0 0
					CHANNELS 3 Zrotation Yrotation Xrotation
					JOINT LeftShoulder
					{
						OFFSET 3.74344 0.81315 -0.36647
CHANNELS 3 Zrotation Xrotation Yrotation
						JOINT LeftElbow
						{
OFFSET 0 -4.971850 -0.000000
CHANNELS 3 Zrotation Xrotation Yrotation
							JOINT LeftWrist
							{
OFFSET 0 -3.358110 0.000000
CHANNELS 3 Zrotation Xrotation Yrotation
								JOINT lhand
								{
									OFFSET 0 0 0
CHANNELS 3 Zrotation Xrotation Yrotation
									JOINT LFingers
									{
OFFSET 0 -0.622780 0.000000
CHANNELS 3 Zrotation Xrotation Yrotation
										End Site
										{
OFFSET 0 -0.502100 0.000000
										}
									}
								}
								JOINT LThumb
								{
OFFSET 0 0.000000 0.000000
CHANNELS 3 Zrotation Xrotation Yrotation
									End Site
									{
OFFSET 0 -0.509760 0.509760
									}
								}
							}
						}
					}
				}
				JOINT RightCollar
				{
					OFFSET 0 0 0
					CHANNELS 3 Zrotation Yrotation Xrotation
					JOINT RightShoulder
					{
						OFFSET -3.75385 0.50666 -0.06525
CHANNELS 3 Zrotation Xrotation Yrotation
						JOINT RightElbow
						{
OFFSET 0 -4.964930 -0.000000
CHANNELS 3 Zrotation Xrotation Yrotation
							JOINT RightWrist
							{
OFFSET 0 -3.349290 0.000000
CHANNELS 3 Zrotation Xrotation Yrotation
								JOINT rhand
								{
									OFFSET 0 0 0
CHANNELS 3 Zrotation Xrotation Yrotation
									JOINT RFingers
									{
OFFSET 0 -0.638040 0.000000
CHANNELS 3 Zrotation Xrotation Yrotation
										End Site
										{
OFFSET 0 -0.514410 0.000000
										}
									}
								}
								JOINT RThumb
								{
OFFSET 0 0.000000 0.000000
CHANNELS 3 Zrotation Xrotation Yrotation
									End Site
									{
OFFSET 0 -0.522260 0.522260
									}
								}
							}
						}
					}
				}
			}
		}
	}
}
MOTION
Frames: 10
Frame Time: 0.008333333333333333
2.705518 17.055103 -1.376534 122.017469 -81.820138 -114.235389 0.000000 0.000000 0.000000 -18.191414 -0.938802 -12.927261 2.091226 9.053511 25.962915 0.643870 -0.036508 -15.149647 0.291033 -3.462777 -9.570541 0.000000 0.000000 0.000000 10.664750 2.983972 -9.586264 -1.068137 -6.570351 18.448569 -0.698811 -10.096966 -22.510635 -0.549184 -4.747119 13.188755 -2.720886 -1.096569 -6.864565 1.160762 -1.293586 0.375955 2.596982 -0.718828 4.330344 -8.956147 -6.347324 -23.275642 0.455327 -5.987583 23.615042 0.601671 -3.505208 11.926983 0.000000 0.000000 0.000000 -5.495756 6.212022 -23.490021 17.276377 -27.219515 4.213556 17.308933 -14.824295 9.002640 0.000000 0.000000 0.000000 -7.125000 0.000000 0.000000 -6.898383 20.588762 -4.060992 0.000000 0.000000 0.000000 -3.566830 3.983426 6.303150 -16.057539 -25.597977 -3.671203 -11.605904 -2.047155 33.265278 0.000000 0.000000 0.000000 7.125000 0.000000 0.000000 25.028858 62.045541 -10.740133
2.684678 17.032576 -1.258210 118.614666 -82.676833 -110.554965 0.000000 0.000000 0.000000 -18.446092 -2.063685 -12.773865 2.095144 9.061510 25.987873 0.772021 0.591326 -16.825466 0.119142 -2.209572 -6.085887 0.000000 0.000000 0.000000 10.792902 2.379609 -9.794077 -1.058478 -6.541412 18.363548 -0.703890 -10.234524 -22.684020 -0.558123 -4.785349 13.297401 -2.726676 -1.254874 -7.224088 1.209076 -1.500075 0.203851 2.623491 -0.821055 4.368915 -8.322429 -5.709007 -23.599357 0.534843 -5.289458 23.573693 0.649132 -3.120081 11.914061 0.000000 0.000000 0.000000 -6.085179 5.793212 -23.758550 16.256439 -25.866466 3.757474 18.259492 -14.793406 8.550994 0.000000 0.000000 0.000000 -7.125000 0.000000 0.000000 -6.218763 21.005725 -3.597974 0.000000 0.000000 0.000000 -2.989715 5.584043 10.668629 -16.708091 -26.471118 -3.956476 -11.602017 -2.834942 32.185133 0.000000 0.000000 0.000000 7.125000 0.000000 0.000000 24.038923 61.076993 -9.733827
2.664081 17.016131 -1.158021 117.249783 -83.469492 -108.957411 0.000000 0.000000 0.000000 -18.515597 -2.707108 -12.867418 2.084295 9.039493 25.919030 0.871898 1.397922 -18.197904 0.067212 -1.672390 -4.600964 0.000000 0.000000 0.000000 11.159684 3.519744 -9.437510 -1.065886 -6.563555 18.428590 -0.632598 -12.155648 -23.919187 -0.556834 -4.779903 13.281792 -2.693269 -1.226359 -7.490153 1.185297 -1.458033 0.182233 2.580435 -0.800860 4.491795 -7.669034 -5.245057 -24.391452 0.676017 -4.813722 23.544331 0.667176 -2.816926 12.009723 0.000000 0.000000 0.000000 -6.119918 5.235268 -25.142476 15.341072 -24.618909 3.366801 19.707591 -15.113926 8.438916 0.000000 0.000000 0.000000 -7.125000 0.000000 0.000000 -5.174283 21.039744 -2.983475 0.000000 0.000000 0.000000 -1.911186 6.481107 13.235919 -17.157611 -27.065127 -4.158822 -11.424312 -2.956448 30.603401 0.000000 0.000000 0.000000 7.125000 0.000000 0.000000 22.888703 59.600447 -8.428549
2.628398 17.002561 -1.046249 115.561671 -83.943672 -107.194304 0.000000 0.000000 0.000000 -18.892218 -3.841349 -12.547204 2.103964 9.079273 26.043664 0.945585 3.151089 -19.763423 0.009925 -0.642275 -1.765011 0.000000 0.000000 0.000000 11.209023 3.802055 -8.998115 -1.035848 -6.473326 18.164029 -0.556658 -13.153746 -24.307519 -0.522658 -4.633177 12.865325 -2.799760 -1.297311 -7.802249 1.092988 -1.532045 0.115648 2.530913 -0.839824 4.603334 -7.038210 -4.646910 -24.852322 0.706121 -4.159818 23.472393 0.687014 -2.456291 12.019828 0.000000 0.000000 0.000000 -6.278683 5.112249 -25.063883 14.660837 -23.671436 3.088503 21.237980 -14.834739 9.128125 0.000000 0.000000 0.000000 -7.125000 0.000000 0.000000 -4.078648 20.211260 -2.424938 0.000000 0.000000 0.000000 -0.941344 7.683927 15.421398 -17.830234 -27.938871 -4.469581 -11.480009 -4.141479 29.454221 0.000000 0.000000 0.000000 7.125000 0.000000 0.000000 21.945770 58.559454 -7.507178
2.623986 16.999729 -0.940134 117.538848 -84.796915 -108.836190 0.000000 0.000000 0.000000 -18.571464 -5.245337 -12.582238 2.130673 9.133146 26.212772 1.034635 4.424001 -21.291159 0.002336 0.068260 0.187523 0.000000 0.000000 0.000000 11.859095 5.522353 -8.456320 -1.000992 -6.366776 17.852397 -0.473005 -14.826119 -25.452226 -0.620588 -5.041351 14.026494 -2.407278 -1.176322 -7.858164 1.113019 -1.410301 -0.109291 2.346074 -0.766702 4.382683 -6.743670 -4.180465 -25.436643 1.171673 -3.685491 23.539012 0.892461 -2.147448 12.136013 0.000000 0.000000 0.000000 -6.301224 5.239478 -24.874658 14.381148 -23.276732 2.977186 22.218758 -14.366250 8.191916 0.000000 0.000000 0.000000 -7.125000 0.000000 0.000000 -3.355665 21.147164 -1.922332 0.000000 0.000000 0.000000 0.162955 8.504770 16.422604 -18.312808 -28.555810 -4.697770 -10.932139 -6.352565 29.020587 0.000000 0.000000 0.000000 7.125000 0.000000 0.000000 22.187683 58.040740 -7.314744
2.598415 16.986621 -0.815065 118.479172 -85.033432 -109.689558 0.000000 0.000000 0.000000 -18.998939 -6.000194 -12.329697 2.136345 9.144537 26.248402 1.141039 4.990756 -22.553742 0.029282 1.092066 3.002221 0.000000 0.000000 0.000000 11.648832 5.023136 -8.636010 -0.992667 -6.341020 17.777106 -0.458709 -14.349261 -24.789284 -0.540479 -4.710405 13.084426 -2.330220 -1.076690 -8.153353 0.943789 -1.270496 -0.078601 2.138598 -0.696348 4.566350 -6.426539 -3.741787 -26.139365 1.227138 -3.140301 23.689358 0.952242 -1.863636 12.297177 0.000000 0.000000 0.000000 -6.249844 5.038090 -24.728040 14.043511 -22.796802 2.844926 23.001108 -15.256605 8.268718 0.000000 0.000000 0.000000 -7.125000 0.000000 0.000000 -2.791218 21.012757 -1.606624 0.000000 0.000000 0.000000 1.166074 8.844265 16.962390 -18.473484 -28.759090 -4.774942 -9.986414 -8.887437 28.718132 0.000000 0.000000 0.000000 7.125000 0.000000 0.000000 22.928784 57.560366 -7.308462
2.599420 16.971646 -0.706297 121.824938 -85.042101 -113.020304 0.000000 0.000000 0.000000 -19.371092 -6.346406 -12.056523 2.111769 9.095197 26.093520 1.205567 5.318845 -23.288910 0.094667 1.973489 5.432748 0.000000 0.000000 0.000000 11.463096 6.110598 -8.383614 -1.016772 -6.415291 17.994297 -0.530006 -14.401125 -25.441428 -0.660265 -5.196782 14.470703 -2.677844 -0.958960 -7.772550 0.859645 -1.090127 -0.295224 2.274652 -0.605941 4.121478 -6.246090 -3.251018 -26.830388 1.431195 -2.524229 24.074205 1.107942 -1.546856 12.552673 0.000000 0.000000 0.000000 -6.115985 5.286703 -24.568615 13.922481 -22.623692 2.798211 23.035219 -16.179110 8.788219 0.000000 0.000000 0.000000 -7.125000 0.000000 0.000000 -2.780272 20.448758 -1.635472 0.000000 0.000000 0.000000 1.906603 9.380276 17.768249 -18.610629 -28.931925 -4.841037 -9.021793 -11.177890 29.771567 0.000000 0.000000 0.000000 7.125000 0.000000 0.000000 24.690376 58.308865 -8.367349
2.577992 16.961736 -0.586033 124.959007 -84.990187 -116.227005 0.000000 0.000000 0.000000 -19.789424 -6.072118 -11.775508 2.088037 9.047108 25.942744 1.258575 5.072881 -23.575369 0.112237 2.159081 5.945527 0.000000 0.000000 0.000000 11.096627 5.975255 -8.371903 -1.038027 -6.480048 18.183687 -0.572517 -14.065430 -25.422485 -0.684130 -5.288294 14.732557 -2.974928 -0.843782 -7.715667 0.758244 -0.909927 -0.393164 2.358301 -0.518444 3.979948 -5.858737 -2.705329 -27.296464 1.414377 -1.870644 24.303489 1.157221 -1.225188 12.697779 0.000000 0.000000 0.000000 -6.014539 5.332492 -24.092939 13.611749 -22.176847 2.679818 23.204928 -15.960990 9.405062 0.000000 0.000000 0.000000 -7.125000 0.000000 0.000000 -2.676970 19.769318 -1.615495 0.000000 0.000000 0.000000 2.470544 9.535150 18.233992 -18.361351 -28.617357 -4.721027 -8.450021 -12.273628 30.930480 0.000000 0.000000 0.000000 7.125000 0.000000 0.000000 26.206441 59.217357 -9.507537
2.581022 16.960279 -0.474439 129.224013 -85.301645 -120.400210 0.000000 0.000000 0.000000 -19.648791 -5.655638 -11.992035 2.083470 9.037740 25.913412 1.262535 4.633207 -23.355247 0.092473 1.958855 5.391978 0.000000 0.000000 0.000000 11.236197 6.798987 -8.234793 -1.038832 -6.482281 18.190425 -0.484124 -14.858359 -25.579760 -0.725273 -5.441628 15.172729 -2.919041 -0.645196 -8.196246 0.703143 -0.624770 0.035489 2.297689 -0.389430 4.677419 -5.037048 -2.460387 -28.078054 0.701349 -1.586131 24.010790 0.795370 -1.111007 12.700937 0.000000 0.000000 0.000000 -5.704310 4.209884 -23.804549 13.261922 -21.669763 2.549163 22.803260 -14.838440 9.743729 0.000000 0.000000 0.000000 -7.125000 0.000000 0.000000 -2.974464 19.435383 -1.817838 0.000000 0.000000 0.000000 3.023161 8.717385 18.315108 -18.350616 -28.603738 -4.715947 -8.381293 -11.847621 32.147595 0.000000 0.000000 0.000000 7.125000 0.000000 0.000000 27.337296 60.274816 -10.653618
2.571203 16.957065 -0.356098 132.022067 -85.411765 -123.163484 0.000000 0.000000 0.000000 -19.765179 -5.562474 -12.028541 2.082200 9.035126 25.905326 1.309400 3.880157 -23.325269 0.188436 2.795482 7.709883 0.000000 0.000000 0.000000 11.055123 7.009807 -8.207180 -1.028472 -6.450841 18.098285 -0.426856 -15.212622 -25.516336 -0.831337 -5.816255 16.252361 -3.107331 -0.567529 -7.887894 0.774209 -0.522896 -0.264148 2.491993 -0.333583 4.187565 -5.006177 -2.018495 -28.179397 0.753157 -0.981910 24.061927 0.923899 -0.835881 12.720378 0.000000 0.000000 0.000000 -5.762796 4.432859 -22.927685 13.054551 -21.367076 2.473176 22.265942 -14.021633 11.067113 0.000000 0.000000 0.000000 -7.125000 0.000000 0.000000 -3.399228 18.058252 -2.182367 0.000000 0.000000 0.000000 3.022896 8.645423 17.844951 -17.684586 -27.751028 -4.401566 -9.479133 -9.293314 31.147484 0.000000 0.000000 0.000000 7.125000 0.000000 0.000000 25.340205 59.644890 -9.428764
